<svg width="28" height="28" viewBox="0 0 28 28" fill="none" xmlns="http://www.w3.org/2000/svg">
<path d="M21.2001 27.3333C15.7565 27.3263 10.5378 25.1607 6.68862 21.3115C2.8394 17.4622 0.673804 12.2436 0.666748 6.79999C0.666748 5.17333 1.31294 3.61329 2.46316 2.46307C3.61338 1.31285 5.17342 0.666656 6.80008 0.666656C7.14454 0.664033 7.48841 0.695294 7.82675 0.75999C8.15383 0.80839 8.47537 0.888776 8.78675 0.99999C9.00575 1.07683 9.20089 1.2095 9.35289 1.38489C9.50489 1.56027 9.60848 1.77229 9.65341 1.99999L11.4801 9.99999C11.5293 10.2171 11.5234 10.4432 11.4628 10.6574C11.4023 10.8717 11.289 11.0674 11.1334 11.2267C10.9601 11.4133 10.9467 11.4267 9.30675 12.28C10.6201 15.1611 12.9243 17.4749 15.8001 18.8C16.6667 17.1467 16.6801 17.1333 16.8667 16.96C17.026 16.8044 17.2217 16.6911 17.436 16.6306C17.6502 16.57 17.8763 16.5641 18.0934 16.6133L26.0934 18.44C26.3138 18.4911 26.5176 18.5975 26.6855 18.7491C26.8535 18.9007 26.9801 19.0926 27.0534 19.3067C27.166 19.6231 27.2507 19.9488 27.3067 20.28C27.3604 20.6151 27.3872 20.954 27.3867 21.2933C27.3622 22.913 26.6978 24.4572 25.5387 25.5889C24.3796 26.7205 22.8199 27.3476 21.2001 27.3333ZM6.80008 3.33332C5.88175 3.33683 5.00202 3.7032 4.35266 4.35257C3.70329 5.00193 3.33693 5.88165 3.33341 6.79999C3.33695 11.5374 5.22046 16.0798 8.57034 19.4297C11.9202 22.7796 16.4626 24.6631 21.2001 24.6667C22.1184 24.6631 22.9981 24.2968 23.6475 23.6474C24.2969 22.998 24.6632 22.1183 24.6667 21.2V20.76L18.4801 19.3333L18.0934 20.0667C17.4934 21.2267 17.0534 22.0667 15.9334 21.6133C13.7239 20.8225 11.7183 19.5494 10.0624 17.8865C8.40644 16.2236 7.14171 14.2128 6.36008 12C5.88008 10.96 6.78675 10.48 7.93341 9.87999L8.66675 9.51999L7.24008 3.33332H6.80008Z" fill="white"/>
</svg>
