<svg width="28" height="22" viewBox="0 0 28 22" fill="none" xmlns="http://www.w3.org/2000/svg">
<path d="M23.3334 0.333252H4.66675C3.60588 0.333252 2.58847 0.754679 1.83832 1.50482C1.08818 2.25497 0.666748 3.27239 0.666748 4.33325V17.6666C0.666748 18.7274 1.08818 19.7449 1.83832 20.495C2.58847 21.2452 3.60588 21.6666 4.66675 21.6666H23.3334C24.3943 21.6666 25.4117 21.2452 26.1618 20.495C26.912 19.7449 27.3334 18.7274 27.3334 17.6666V4.33325C27.3334 3.27239 26.912 2.25497 26.1618 1.50482C25.4117 0.754679 24.3943 0.333252 23.3334 0.333252ZM22.4401 2.99992L14.0001 9.33325L5.56008 2.99992H22.4401ZM23.3334 18.9999H4.66675C4.31313 18.9999 3.97399 18.8594 3.72394 18.6094C3.47389 18.3593 3.33341 18.0202 3.33341 17.6666V4.66658L13.2001 12.0666C13.4309 12.2397 13.7116 12.3333 14.0001 12.3333C14.2886 12.3333 14.5693 12.2397 14.8001 12.0666L24.6667 4.66658V17.6666C24.6667 18.0202 24.5263 18.3593 24.2762 18.6094C24.0262 18.8594 23.687 18.9999 23.3334 18.9999Z" fill="white"/>
</svg>
